<?xml version="1.0" encoding="UTF-8" standalone="no"?><!DOCTYPE svg PUBLIC "-//W3C//DTD SVG 1.1//EN" "http://www.w3.org/Graphics/SVG/1.1/DTD/svg11.dtd"><svg width="100%" height="100%" viewBox="0 0 53 18" version="1.1" xmlns="http://www.w3.org/2000/svg" xmlns:xlink="http://www.w3.org/1999/xlink" xml:space="preserve" xmlns:serif="http://www.serif.com/" style="fill-rule:evenodd;clip-rule:evenodd;stroke-linecap:round;stroke-linejoin:round;stroke-miterlimit:1.5;"><g><path d="M8.824,0.163c-3.715,-0.256 -3.339,4.313 -3.339,4.313" style="fill:none;stroke:#16313f;stroke-width:0.24px;"/><path d="M8.318,0.163c2.868,-0.209 3.4,3.191 3.4,3.191" style="fill:none;stroke:#16313f;stroke-width:0.24px;"/><g><path d="M12.954,1.655l-8.837,1.802l1.43,13.712l10.35,-2.867l-2.943,-12.647Z" style="fill:#3fe680;"/><path d="M3.691,3.523l0.449,-0.066l1.429,13.712l-1.67,-0.786l-2.619,0.01l2.411,-12.87Z" style="fill:#309959;"/></g><path d="M6.243,4.013c0.134,-0.037 0.286,0.08 0.339,0.26c0.053,0.181 -0.012,0.357 -0.146,0.394c-0.134,0.038 -0.286,-0.079 -0.339,-0.259c-0.053,-0.181 0.012,-0.358 0.146,-0.395Z" style="fill:#16313f;"/><path d="M11.454,2.796c0.133,-0.037 0.285,0.079 0.339,0.26c0.053,0.18 -0.013,0.357 -0.146,0.394c-0.134,0.037 -0.286,-0.079 -0.339,-0.26c-0.054,-0.18 0.012,-0.357 0.146,-0.394Z" style="fill:#16313f;"/><path d="M6.399,4.34c0,0 -1.218,-3.531 1.247,-4.083c3.222,-0.721 3.904,2.93 3.904,2.93" style="fill:none;stroke:#16313f;stroke-width:0.24px;"/><path d="M11.91,11.397l-0.712,0.203l-0.401,-2.379c-0.021,-0.125 -0.035,-0.304 -0.044,-0.536l-0.224,2.174l-0.377,0.107l-1.057,-1.81c0.068,0.22 0.112,0.39 0.133,0.512l0.401,2.378l-0.713,0.203l-0.812,-4.823l0.699,-0.198l1.228,2.444c0.013,0.026 0.032,0.097 0.056,0.213c-0.009,-0.051 -0.015,-0.126 -0.018,-0.224l0.329,-2.887l0.7,-0.199l0.812,4.822Z" style="fill:#309959;fill-rule:nonzero;"/></g><g><path d="M30.975,12.841l-1.382,0l-0,-5.437c-0,-0.446 0.027,-0.991 0.082,-1.635l-0.024,-0c-0.086,0.367 -0.162,0.631 -0.228,0.791l-2.508,6.281l-0.961,0l-2.514,-6.234c-0.07,-0.184 -0.144,-0.463 -0.222,-0.838l-0.024,-0c0.031,0.336 0.047,0.885 0.047,1.646l-0,5.426l-1.289,0l-0,-8.402l1.963,-0l2.209,5.596c0.168,0.429 0.277,0.75 0.328,0.96l0.029,0c0.145,-0.441 0.262,-0.769 0.352,-0.984l2.25,-5.572l1.892,-0l0,8.402Z" style="fill:#fff;fill-rule:nonzero;"/><path d="M39.946,12.841l-1.529,0l-0.756,-2.139l-3.305,0l-0.726,2.139l-1.524,0l3.147,-8.402l1.57,-0l3.123,8.402Zm-2.654,-3.275l-1.166,-3.352c-0.035,-0.109 -0.073,-0.285 -0.112,-0.527l-0.023,-0c-0.035,0.223 -0.074,0.398 -0.117,0.527l-1.155,3.352l2.573,-0Z" style="fill:#fff;fill-rule:nonzero;"/><path d="M45.753,12.841l-4.653,0l0,-8.402l1.395,-0l-0,7.224l3.258,0l-0,1.178Z" style="fill:#fff;fill-rule:nonzero;"/><path d="M51.618,12.841l-4.652,0l-0,-8.402l1.394,-0l0,7.224l3.258,0l-0,1.178Z" style="fill:#fff;fill-rule:nonzero;"/></g></svg>