<?xml version="1.0" encoding="UTF-8" standalone="no"?><!DOCTYPE svg PUBLIC "-//W3C//DTD SVG 1.1//EN" "http://www.w3.org/Graphics/SVG/1.1/DTD/svg11.dtd"><svg width="100%" height="100%" viewBox="0 0 64 64" version="1.1" xmlns="http://www.w3.org/2000/svg" xmlns:xlink="http://www.w3.org/1999/xlink" xml:space="preserve" xmlns:serif="http://www.serif.com/" style="fill-rule:evenodd;clip-rule:evenodd;stroke-linecap:round;stroke-linejoin:round;stroke-miterlimit:1.5;"><path d="M54.719,0.642c0.107,-0.464 -0.12,-0.738 -0.507,-0.611l-1.403,0.459c-0.387,0.126 -0.788,0.605 -0.896,1.069l-2.869,12.4c-0.107,0.463 0.12,0.737 0.507,0.61l1.403,-0.459c0.387,-0.126 0.789,-0.605 0.896,-1.069l2.869,-12.399Z" style="fill:#3fe680;"/><path d="M50.881,1.878c0.107,-0.464 -0.12,-0.738 -0.507,-0.611l-1.403,0.459c-0.387,0.126 -0.789,0.606 -0.896,1.069l-2.869,12.4c-0.107,0.463 0.12,0.737 0.507,0.61l1.403,-0.458c0.387,-0.127 0.788,-0.606 0.895,-1.07l2.87,-12.399Z" style="fill:#e28750;"/><path d="M47.042,2.919c0.108,-0.464 -0.12,-0.738 -0.507,-0.611l-1.403,0.459c-0.387,0.126 -0.788,0.605 -0.895,1.069l-2.87,12.4c-0.107,0.463 0.12,0.737 0.507,0.61l1.403,-0.459c0.387,-0.126 0.789,-0.605 0.896,-1.069l2.869,-12.399Z" style="fill:#7fcafa;"/><path d="M64,9.522c0,-1.236 -0.98,-2.24 -2.187,-2.24l-29.813,2.155l0,53.384l29.813,-2.155c1.207,-0 2.187,-1.004 2.187,-2.24l0,-48.904Z" style="fill:#015697;"/><path d="M-0,9.522c-0,-1.236 0.98,-2.24 2.187,-2.24l29.813,2.155l-0,53.384l-29.813,-2.155c-1.207,-0 -2.187,-1.004 -2.187,-2.24l-0,-48.904Z" style="fill:#013a65;"/><path d="M34,10.966l-4,-0l0,52.029c1.328,0.745 2.672,0.701 4,0l0,-52.029Z" style="fill:#003e6d;"/><path d="M60.246,9.756c-0,-1.482 -1.204,-2.686 -2.686,-2.686c-7.857,-0.164 -17.92,0.533 -26.211,2.537l0,50.656c8.614,-2.177 18.681,-2.961 26.211,-2.537c1.482,0 2.686,-1.203 2.686,-2.686l-0,-45.284Z" style="fill:#fff;stroke:#fff;stroke-width:1px;"/><path d="M32,60.114c-8.614,-2.178 -18.68,-2.962 -26.21,-2.537c-1.483,-0 -2.686,-1.204 -2.686,-2.687l-0,-45.283c-0,-1.483 1.203,-2.687 2.686,-2.687c7.857,-0.164 17.919,0.533 26.21,2.537" style="fill:#e4e4e4;stroke:#e4e4e4;stroke-width:1px;"/><path d="M8.668,13.579c0,-0.441 0.35,-0.743 0.78,-0.673c5.402,0.197 10.805,1.05 16.208,2.636c0.43,0.07 0.779,0.485 0.779,0.927l0,6.4c0,0.441 -0.349,0.743 -0.779,0.673c-5.201,-1.485 -10.591,-2.4 -16.208,-2.636c-0.43,-0.07 -0.78,-0.485 -0.78,-0.927l0,-6.4Z" style="fill:#3fe680;"/><path d="M8.668,27.67c0,-0.441 0.35,-0.743 0.78,-0.673c5.402,0.198 10.805,1.051 16.208,2.636c0.43,0.07 0.779,0.485 0.779,0.927c0,0.441 -0.349,0.743 -0.779,0.673c-5.201,-1.485 -10.591,-2.4 -16.208,-2.636c-0.43,-0.07 -0.78,-0.485 -0.78,-0.927Z" style="fill:#b9b9b9;"/><path d="M8.668,31.831c0,-0.441 0.35,-0.743 0.78,-0.673c5.402,0.198 10.805,1.05 16.208,2.636c0.43,0.07 0.779,0.485 0.779,0.927c0,0.441 -0.349,0.743 -0.779,0.673c-5.201,-1.485 -10.591,-2.4 -16.208,-2.636c-0.43,-0.07 -0.78,-0.485 -0.78,-0.927Z" style="fill:#b9b9b9;"/><path d="M8.668,35.931c0,-0.441 0.35,-0.743 0.78,-0.673c5.402,0.198 10.805,1.05 16.208,2.636c0.43,0.07 0.779,0.485 0.779,0.927c0,0.441 -0.349,0.743 -0.779,0.673c-5.201,-1.485 -10.591,-2.4 -16.208,-2.636c-0.43,-0.07 -0.78,-0.485 -0.78,-0.927Z" style="fill:#b9b9b9;"/><path d="M16.128,40.967c0,-0.441 0.203,-0.767 0.452,-0.726c3.219,0.187 6.366,1.004 9.403,1.806c0.249,0.041 0.452,0.432 0.452,0.874c0,0.441 -0.203,0.767 -0.452,0.726c-2.903,-0.788 -6.031,-1.614 -9.403,-1.806c-0.249,-0.041 -0.452,-0.432 -0.452,-0.874Z" style="fill:#b9b9b9;"/><path d="M55.332,13.823c-0,-0.442 -0.35,-0.743 -0.78,-0.673c-5.402,0.197 -10.805,1.05 -16.208,2.636c-0.43,0.07 -0.779,0.485 -0.779,0.927l-0,6.4c-0,0.441 0.349,0.743 0.779,0.673c5.201,-1.485 10.591,-2.401 16.208,-2.636c0.43,-0.07 0.78,-0.485 0.78,-0.927l-0,-6.4Z" style="fill:#db6a26;"/><path d="M55.332,27.914c-0,-0.441 -0.35,-0.743 -0.78,-0.673c-5.402,0.198 -10.805,1.051 -16.208,2.636c-0.43,0.07 -0.779,0.485 -0.779,0.927c-0,0.441 0.349,0.743 0.779,0.673c5.201,-1.485 10.591,-2.4 16.208,-2.636c0.43,-0.07 0.78,-0.485 0.78,-0.927Z" style="fill:#b9b9b9;"/><path d="M55.332,32.075c-0,-0.441 -0.35,-0.743 -0.78,-0.673c-5.402,0.198 -10.805,1.05 -16.208,2.636c-0.43,0.07 -0.779,0.485 -0.779,0.927c-0,0.441 0.349,0.743 0.779,0.673c5.201,-1.485 10.591,-2.4 16.208,-2.636c0.43,-0.07 0.78,-0.485 0.78,-0.927Z" style="fill:#b9b9b9;"/><path d="M55.332,36.175c-0,-0.441 -0.35,-0.743 -0.78,-0.673c-5.402,0.198 -10.805,1.05 -16.208,2.636c-0.43,0.07 -0.779,0.485 -0.779,0.927c-0,0.441 0.349,0.743 0.779,0.673c5.201,-1.485 10.591,-2.4 16.208,-2.636c0.43,-0.07 0.78,-0.485 0.78,-0.927Z" style="fill:#b9b9b9;"/><path d="M47.872,41.211c-0,-0.441 -0.203,-0.767 -0.452,-0.726c-3.219,0.187 -6.366,1.004 -9.403,1.806c-0.249,0.041 -0.452,0.432 -0.452,0.874c-0,0.441 0.203,0.767 0.452,0.726c2.903,-0.788 6.031,-1.614 9.403,-1.806c0.249,-0.041 0.452,-0.432 0.452,-0.874Z" style="fill:#b9b9b9;"/></svg>