<?xml version="1.0" encoding="UTF-8" standalone="no"?><!DOCTYPE svg PUBLIC "-//W3C//DTD SVG 1.1//EN" "http://www.w3.org/Graphics/SVG/1.1/DTD/svg11.dtd"><svg width="100%" height="100%" viewBox="0 0 64 64" version="1.1" xmlns="http://www.w3.org/2000/svg" xmlns:xlink="http://www.w3.org/1999/xlink" xml:space="preserve" xmlns:serif="http://www.serif.com/" style="fill-rule:evenodd;clip-rule:evenodd;stroke-linejoin:round;stroke-miterlimit:2;"><path d="M43.345,6.288c0.031,0.466 0.118,0.96 0.267,1.47c0.395,1.534 1.877,3.359 3.276,4.761c-0.749,1.225 -1.872,2.473 -2.893,3.452c-2.017,-0.496 -4.516,-1.383 -5.725,-2.615c-1.691,-1.622 -2.209,-3.557 -1.297,-4.839c0.913,-1.282 3.257,-1.91 4.948,-0.289c0.26,-0.897 0.79,-1.537 1.424,-1.94Z" style="fill:#3fe680;"/><path d="M50.449,4.102c1.691,-1.621 4.035,-0.993 4.947,0.289c0.913,1.282 0.394,3.217 -1.296,4.839c-1.21,1.232 -3.708,2.119 -5.726,2.616c-1.498,-1.439 -3.219,-3.456 -3.65,-5.128c-0.653,-2.25 -0.135,-4.186 1.297,-4.84c1.431,-0.653 3.775,-0.025 4.428,2.224Z" style="fill:#3fe680;"/><path d="M32.801,1.834c0.831,-1.91 2.97,-2.198 4.158,-1.459c1.189,0.739 1.427,2.505 0.595,4.415c-0.57,1.425 -2.316,3.009 -3.801,4.109c-1.723,-0.667 -3.826,-1.733 -4.753,-2.956c-1.307,-1.622 -1.545,-3.388 -0.595,-4.415c0.95,-1.028 3.089,-1.316 4.396,0.306Z" style="fill:#3fe680;"/><path d="M24.401,41.59c-1.639,-0 -3.178,-1.33 -3.437,-2.968l-3.743,-23.746c-0.258,-1.638 0.862,-2.968 2.5,-2.968l41.398,0c1.638,0 2.758,1.33 2.5,2.968l-3.744,23.746c-0.258,1.638 -1.798,2.968 -3.436,2.968l-32.038,-0Z" style="fill:#7fcafa;"/><path d="M52.31,37.44c-0.847,-0.008 -1.642,-0.963 -1.775,-2.138l-1.945,-17.106c-0.135,-1.18 0.448,-2.138 1.299,-2.138l5.891,0c0.852,0 1.434,0.958 1.299,2.138l-1.945,17.106c-0.134,1.18 -0.934,2.138 -1.785,2.138l-1.029,-0l-0.01,-0Z" style="fill:#015697;"/><path d="M40.616,37.44c-0.848,-0.008 -1.642,-0.963 -1.776,-2.138l-1.945,-17.106c-0.134,-1.18 0.448,-2.138 1.299,-2.138l5.892,0c0.851,0 1.433,0.958 1.299,2.138l-1.945,17.106c-0.134,1.18 -0.934,2.138 -1.785,2.138l-1.029,-0l-0.01,-0Z" style="fill:#015697;"/><path d="M28.902,37.44c-0.847,-0.008 -1.642,-0.963 -1.775,-2.138l-1.945,-17.106c-0.135,-1.18 0.448,-2.138 1.299,-2.138l5.891,0c0.852,0 1.434,0.958 1.299,2.138l-1.945,17.106c-0.134,1.18 -0.934,2.138 -1.785,2.138l-1.029,-0l-0.01,-0Z" style="fill:#015697;"/><path d="M62.046,44.908c0,-0.552 -0.448,-1 -1,-1l-43.772,0c-0.552,0 -1,0.448 -1,1l-0,2c-0,0.552 0.448,1 1,1l43.772,0c0.552,0 1,-0.448 1,-1l0,-2Z" style="fill:#607d8b;"/><path d="M13.908,8.908c-0.085,-0.552 -0.603,-1 -1.155,-1l-2,0c-0.552,0 -0.93,0.448 -0.845,1l5.896,38c0.085,0.552 0.603,1 1.155,1l2,0c0.552,0 0.93,-0.448 0.845,-1l-5.896,-38Z" style="fill:#607d8b;"/><path d="M12.429,8.908c-0,-0.552 -0.448,-1 -1,-1l-5.538,0c-0.552,0 -1,0.448 -1,1l0,2c0,0.552 0.448,1 1,1l5.538,0c0.552,0 1,-0.448 1,-1l-0,-2Z" style="fill:#607d8b;"/><path d="M8,8.408c0,-0.828 -0.672,-1.5 -1.5,-1.5l-5,0c-0.828,0 -1.5,0.672 -1.5,1.5l0,3c0,0.828 0.672,1.5 1.5,1.5l5,0c0.828,0 1.5,-0.672 1.5,-1.5l0,-3Z" style="fill:#db6a26;"/><circle cx="25" cy="57" r="7" style="fill:#607d8b;"/><circle cx="47.898" cy="57" r="7" style="fill:#607d8b;"/></svg>